<?xml version="1.0" encoding="UTF-8"?>
<svg version="1.1" xmlns="http://www.w3.org/2000/svg" width="512" height="512">
<path d="M0 0 C1.42214329 0.85656534 2.84475677 1.71235047 4.26782227 2.56738281 C12.85953344 7.74081521 21.40650415 12.98797993 29.91577148 18.29589844 C36.42229976 22.35248111 42.98257393 26.31373471 49.5625 30.25 C51.66019318 31.50644877 53.7578488 32.76296024 55.85546875 34.01953125 C57.46494385 34.98366943 57.46494385 34.98366943 59.10693359 35.96728516 C60.22664551 36.63808105 61.34635742 37.30887695 62.5 38 C63.09669495 38.3572113 63.69338989 38.71442261 64.3081665 39.0824585 C68.05914739 41.32850383 71.80666237 43.58017391 75.55026245 45.83850098 C76.74359437 46.55721837 77.93799127 47.27417122 79.13357544 47.98913574 C107.63249361 65.03724693 107.63249361 65.03724693 114.5 77 C114.34300949 80.05893622 114.00881185 81.49707718 111.8125 83.66796875 C105.97307139 87.50502573 100.02322018 91.10922341 93.98364258 94.61962891 C86.99899445 98.68097085 80.08925372 102.8624685 73.1875 107.0625 C72.5921344 107.42462585 71.9967688 107.78675171 71.38336182 108.15985107 C68.31424864 110.02663337 65.24559923 111.89417579 62.17724609 113.76220703 C56.86659505 116.99481535 51.55156687 120.22021159 46.23672485 123.44592285 C43.33476706 125.20721934 40.43298501 126.96880525 37.53125 128.73046875 C36.95534622 129.08009674 36.37944244 129.42972473 35.78608704 129.78994751 C32.20500823 131.96420402 28.62463094 134.13961129 25.04472351 136.3157959 C12.58751579 143.88836911 0.12709587 151.45475533 -12.38671875 158.93359375 C-15.73707597 160.93762736 -19.07849867 162.95578808 -22.41438293 164.98382568 C-24.13892957 166.03175237 -25.86479152 167.07747851 -27.59106445 168.12255859 C-29.82254887 169.47426634 -32.05165386 170.82991193 -34.27807617 172.18994141 C-35.28974854 172.80144043 -36.3014209 173.41293945 -37.34375 174.04296875 C-38.24287109 174.58977295 -39.14199219 175.13657715 -40.06835938 175.69995117 C-43.62223288 177.59998897 -46.75316814 178.16373744 -50.75 178.25 C-51.80960937 178.28867187 -51.80960937 178.28867187 -52.890625 178.328125 C-59.59562112 177.48498178 -65.18801357 174.20613619 -70.75 170.5625 C-72.16559033 169.65716898 -73.58230853 168.75359971 -75 167.8515625 C-75.73734375 167.38137695 -76.4746875 166.91119141 -77.234375 166.42675781 C-81.03485578 164.03343781 -84.89234215 161.73710745 -88.75 159.4375 C-96.85355909 154.59563136 -104.93292034 149.71484275 -113 144.8125 C-113.59059204 144.45364716 -114.18118408 144.09479431 -114.78967285 143.72506714 C-117.81699855 141.88553848 -120.84410525 140.04564986 -123.87109375 138.20556641 C-127.42379343 136.04607062 -130.97736229 133.88800872 -134.53125 131.73046875 C-135.10713867 131.38085083 -135.68302734 131.03123291 -136.27636719 130.67102051 C-138.01756259 129.61398809 -139.75877739 128.55698761 -141.5 127.5 C-147.98586766 123.56283441 -154.47165566 119.6255426 -160.95506287 115.68432617 C-163.96982983 113.85170173 -166.98488336 112.01954906 -170 110.1875 C-170.58474091 109.83214172 -171.16948181 109.47678345 -171.77194214 109.11065674 C-179.35251818 104.50470037 -186.94901682 99.92636497 -194.5625 95.375 C-213.398046 84.101954 -213.398046 84.101954 -216.5 81 C-216.71937667 76.50277837 -214.96780822 73.99381248 -212.1875 70.6875 C-202.53531865 60.50945288 -190.44031927 53.81436753 -178.47265625 46.76318359 C-173.55005988 43.84342415 -168.66210786 40.8666275 -163.77294922 37.89135742 C-161.98576733 36.80383928 -160.19804659 35.71721237 -158.41015625 34.63085938 C-155.98291821 33.15601606 -153.55584011 31.68091021 -151.12890625 30.20556641 C-147.57620655 28.0460706 -144.02262197 25.88803469 -140.46875 23.73046875 C-139.60437317 23.205634 -139.60437317 23.205634 -138.72253418 22.67019653 C-135.82790727 20.91274448 -132.93286796 19.15597745 -130.03710938 17.40039062 C-124.63124159 14.12205901 -119.22931343 10.83774909 -113.84082031 7.53091431 C-111.33191351 5.9917711 -108.82082134 4.45621305 -106.30957031 2.92089844 C-105.12814277 2.19725016 -103.9477544 1.47190182 -102.76855469 0.74462891 C-67.38866153 -21.07262964 -35.57366641 -21.68487728 0 0 Z " fill="#000000" transform="translate(307.5,67)"/>
<path d="M0 0 C2.29185511 7.30564174 2.28925522 14.25696497 2.2746582 21.87304688 C2.27901212 23.26697053 2.28419752 24.6608918 2.29014587 26.05480957 C2.30348194 29.82391218 2.30412001 33.59291416 2.30158257 37.36203575 C2.30050804 40.52227463 2.30540912 43.68249356 2.310188 46.84272814 C2.32126705 54.31118307 2.32173125 61.77958771 2.31567383 69.24804688 C2.30965074 76.91419784 2.32190621 84.58016448 2.3432439 92.24628401 C2.36095805 98.85726818 2.36684545 105.46819424 2.36360615 112.07920122 C2.36180687 116.01439456 2.36429108 119.94945676 2.37832069 123.8846283 C2.39105333 127.59478636 2.38881215 131.30466171 2.37590981 135.01481628 C2.37247949 136.99645755 2.38361053 138.97810809 2.39547729 140.9597168 C2.2805959 160.97497547 -2.81514027 179.57188288 -16 195 C-16.804375 195.95132813 -17.60875 196.90265625 -18.4375 197.8828125 C-26.27602844 206.63269744 -35.86562405 212.27755139 -45.91601562 218.17822266 C-49.19570491 220.11560719 -52.45250771 222.08864316 -55.703125 224.07421875 C-56.86717941 224.78492537 -58.03124199 225.4956186 -59.1953125 226.20629883 C-59.77958008 226.56301666 -60.36384766 226.9197345 -60.96582031 227.28726196 C-71.45898536 233.68449584 -81.99601508 240.00917495 -92.54125977 246.32006836 C-98.13709059 249.67187452 -103.72192391 253.04080601 -109.29296875 256.43359375 C-109.91015778 256.80928497 -110.5273468 257.1849762 -111.16323853 257.572052 C-114.13910061 259.38393561 -117.11355634 261.198031 -120.0859375 263.015625 C-125.82127307 266.51112538 -131.58179344 269.95813575 -137.3984375 273.31640625 C-139.04658447 274.26882202 -139.04658447 274.26882202 -140.72802734 275.24047852 C-147.8882575 279.09093208 -155.69264123 283.13282165 -164 282 C-165.90418428 280.09581572 -165.13888644 276.69875409 -165.14717102 274.17601013 C-165.15268605 273.0928868 -165.15268605 273.0928868 -165.1583125 271.9878822 C-165.16939256 269.54977576 -165.17320052 267.11171188 -165.17700195 264.67358398 C-165.18326356 262.93274295 -165.18991008 261.19190327 -165.19691467 259.45106506 C-165.21435758 254.70694144 -165.22488628 249.96282792 -165.2331202 245.21868014 C-165.23826545 242.25519621 -165.24434152 239.29171543 -165.25063133 236.32823372 C-165.26969616 227.05802684 -165.28392218 217.78782797 -165.2922433 208.51760525 C-165.30200884 197.81423585 -165.32830509 187.11107365 -165.36874419 176.40777725 C-165.39891498 168.13848426 -165.41371326 159.8692506 -165.41702431 151.59990364 C-165.41937454 146.65989224 -165.42833073 141.72010184 -165.45348549 136.78014946 C-165.47678673 132.12866701 -165.48099117 127.47755072 -165.47072411 122.82602501 C-165.47022906 121.12167391 -165.47654018 119.41730467 -165.49028015 117.71300888 C-165.62602953 99.87133769 -165.62602953 99.87133769 -159.41711903 93.33318233 C-154.88665394 89.04930798 -149.37992297 86.07671251 -144 83 C-142.02264464 81.85032091 -140.04610678 80.69923484 -138.0703125 79.546875 C-137.06129883 78.95970703 -136.05228516 78.37253906 -135.01269531 77.76757812 C-130.26667501 74.98304109 -125.5696595 72.12003114 -120.875 69.25 C-119.46190552 68.38725464 -119.46190552 68.38725464 -118.02026367 67.50708008 C-116.04867566 66.30330957 -114.07724363 65.09928357 -112.10595703 63.89501953 C-106.51383896 60.483133 -100.91277388 57.08597497 -95.3125 53.6875 C-94.12677924 52.96779176 -92.94106965 52.24806513 -91.75537109 51.52832031 C-89.36380644 50.07659933 -86.97220233 48.6249434 -84.58056641 47.17333984 C-79.88245057 44.32175112 -75.18474514 41.46948657 -70.48706055 38.6171875 C-68.16437299 37.20692193 -65.84161537 35.79677187 -63.51879883 34.38671875 C-56.97772767 30.41588384 -50.43749711 26.44367418 -43.89942932 22.46789551 C-40.93085564 20.66311875 -37.96099614 18.86053341 -34.98803711 17.06298828 C-29.62718096 13.82035645 -24.28039771 10.55958991 -18.97265625 7.23046875 C-18.05226563 6.65981689 -17.131875 6.08916504 -16.18359375 5.5012207 C-14.48996893 4.45043503 -12.80319273 3.38849273 -11.125 2.31323242 C-4.42655559 -1.81286372 -4.42655559 -1.81286372 0 0 Z " fill="#000000" transform="translate(435,175)"/>
<path d="M0 0 C2.41821289 1.22070312 2.41821289 1.22070312 4.97265625 2.78125 C5.93985596 3.36696777 6.90705566 3.95268555 7.90356445 4.55615234 C9.46723755 5.51835693 9.46723755 5.51835693 11.0625 6.5 C12.74590698 7.52328848 14.4293163 8.54657313 16.11283875 9.56967163 C17.88480139 10.6482899 19.65458428 11.73040522 21.42382812 12.81347656 C24.90702729 14.94504662 28.39772248 17.06406503 31.890625 19.1796875 C36.56086174 22.00930128 41.22894975 24.84240405 45.89453125 27.6796875 C52.34554096 31.60263097 58.7988851 35.52171694 65.25302124 39.43951416 C68.16878739 41.2095006 71.08438512 42.9797644 74 44.75 C75.16666586 45.45833466 76.33333253 46.16666799 77.5 46.875 C84.5 51.125 84.5 51.125 86.24977112 52.18736267 C87.41719879 52.89615695 88.5846284 53.60494805 89.75205994 54.31373596 C92.65709905 56.07749073 95.5621052 57.84129972 98.46704102 59.60522461 C103.85524021 62.87695102 109.24374159 66.14817616 114.63339233 69.41751099 C117.13422044 70.93454545 119.63486536 72.45188172 122.13549805 73.96923828 C123.86554596 75.018846 125.59585331 76.06802604 127.32617188 77.1171875 C129.47465273 78.42093351 131.62190416 79.72670805 133.76782227 81.03466797 C136.03215215 82.41149821 138.30029749 83.77996017 140.57397461 85.14111328 C141.74470672 85.84785289 142.91536329 86.55471765 144.0859375 87.26171875 C145.13185059 87.88908936 146.17776367 88.51645996 147.25537109 89.1628418 C152.06116921 92.37967429 155.88982039 96.54540937 158 102 C158.24888897 105.28490734 158.24888897 105.28490734 158.24723816 109.26982117 C158.24965257 110.00348917 158.25206699 110.73715718 158.25455457 111.49305755 C158.26019159 113.95208652 158.25152859 116.41085573 158.24291992 118.86987305 C158.24399278 120.63236563 158.24593151 122.39485786 158.24867249 124.15734863 C158.25352235 128.94425113 158.24586414 133.73106049 158.23571944 138.51795173 C158.22694475 143.52098471 158.22869625 148.52401472 158.2290802 153.52705383 C158.22814352 161.92601076 158.21945767 170.32493157 158.20581055 178.72387695 C158.19006967 188.44761109 158.18481296 198.1713057 158.1855461 207.89505166 C158.18615541 217.23680592 158.18105981 226.57854724 158.17275429 235.92029762 C158.1692151 239.90235304 158.16739014 243.88440389 158.16686058 247.8664608 C158.16585956 252.54905785 158.15978279 257.23162144 158.14969444 261.91420746 C158.14676214 263.63761248 158.14554554 265.36102136 158.14612198 267.08442879 C158.14660915 269.42669858 158.14099206 271.76887317 158.13371277 274.11112976 C158.13203692 275.42502025 158.13036108 276.73891073 158.12863445 278.09261608 C158 281 158 281 157 282 C140.73875025 284.21744315 121.496115 268.38418448 108.39672852 260.21191406 C101.61938174 255.98553325 94.7929381 251.8483656 87.9375 247.75 C77.71240654 241.634331 67.50802258 235.48601663 57.33764648 229.27978516 C51.76150509 225.87881616 46.17383639 222.50274983 40.5390625 219.19921875 C29.98615594 212.97895508 20.4382875 206.95404022 12 198 C11.33355469 197.32839844 10.66710937 196.65679687 9.98046875 195.96484375 C-5.30544228 179.74645884 -9.32728782 158.24221293 -9.25878906 136.74536133 C-9.26150656 135.35919512 -9.26507171 133.97303037 -9.26940918 132.58686829 C-9.27844277 128.85978397 -9.27502736 125.13281172 -9.26865101 121.40572572 C-9.26354684 117.4861945 -9.26829435 113.56667214 -9.27142334 109.6471405 C-9.27504892 103.07146501 -9.27029967 96.49583464 -9.26074219 89.92016602 C-9.24984674 82.33676097 -9.25339679 74.7534634 -9.264395 67.17006093 C-9.2734919 60.633842 -9.27474183 54.09765528 -9.26951766 47.56143206 C-9.2664129 43.66847294 -9.26594756 39.77556423 -9.27259064 35.88260841 C-9.27839908 32.22417261 -9.27430374 28.56587457 -9.26280212 24.90745354 C-9.25892901 22.93763286 -9.26481026 20.96780042 -9.27105713 18.99798584 C-9.23962511 12.36653182 -8.91220538 6.37360569 -7 0 C-4.25304696 -1.37347652 -2.93476664 -0.80458651 0 0 Z " fill="#000000" transform="translate(85,175)"/>
</svg>
